<svg width="18" height="18" viewBox="0 0 18 18" fill="none" xmlns="http://www.w3.org/2000/svg">
<path d="M8.92441 3.35314C8.8895 1.68961 7.53102 0.351562 5.85913 0.351562C4.18758 0.351562 2.82935 1.68902 2.79388 3.35205C1.36702 3.88815 0.351562 5.26498 0.351562 6.87915C0.351562 8.95953 2.03805 10.646 4.11843 10.646C4.74586 10.646 5.33737 10.4924 5.85768 10.2211C6.378 10.4924 6.9695 10.646 7.59694 10.646C9.67732 10.646 11.3638 8.95953 11.3638 6.87915C11.3638 5.26607 10.3497 3.89002 8.92441 3.35314Z" fill="#FCFCFC"/>
<path d="M4.22976 16.128C4.78052 15.478 5.08283 14.6537 5.08283 13.8017V10.9994L2.9216 8.83819C2.64031 8.55687 2.64031 8.10075 2.9216 7.81943C3.20292 7.53811 3.65907 7.53811 3.94039 7.81943L5.08283 8.96187V5.40117C5.08283 4.97243 5.43038 4.62488 5.85912 4.62488C6.28785 4.62488 6.6354 4.97243 6.6354 5.40117V7.60842L7.77784 6.46598C8.05916 6.18466 8.51531 6.18466 8.79663 6.46598C9.07792 6.7473 9.07792 7.20342 8.79663 7.48474L6.6354 9.64598V13.8017C6.6354 14.6537 6.93767 15.478 7.48847 16.128H4.22976Z" fill="#FCFCFC"/>
<path d="M15.2091 4.87377C15.1742 3.21024 13.8157 1.87219 12.1438 1.87219C10.4723 1.87219 9.11404 3.20965 9.07857 4.87268C7.65171 5.40878 6.63629 6.78561 6.63629 8.39978C6.63629 10.4802 8.32278 12.1666 10.4032 12.1666C11.0306 12.1666 11.6221 12.0131 12.1424 11.7417C12.6627 12.0131 13.2542 12.1666 13.8817 12.1666C15.962 12.1667 17.6485 10.4802 17.6485 8.39982C17.6485 6.7867 16.6344 5.41065 15.2091 4.87377Z" fill="#FCFCFC"/>
<path d="M10.5144 17.6486C11.0652 16.9986 11.3675 16.1743 11.3675 15.3223V12.8062L9.20626 10.6449C8.92498 10.3636 8.92498 9.90748 9.20626 9.62616C9.48759 9.34484 9.94374 9.34484 10.2251 9.62616L11.3675 10.7686V7.20793C11.3675 6.7792 11.7151 6.43164 12.1438 6.43164C12.5725 6.43164 12.9201 6.7792 12.9201 7.20793V9.41519L14.0625 8.27275C14.3438 7.99142 14.8 7.99142 15.0813 8.27275C15.3626 8.55407 15.3626 9.01019 15.0813 9.29151L12.9201 11.4527V15.3223C12.9201 16.1743 13.2224 16.9986 13.7731 17.6486H10.5144Z" fill="#FCFCFC"/>
<path d="M13.8816 12.5183C16.1526 12.5183 18 10.6708 18 8.3999C18 7.54592 17.7409 6.7267 17.2507 6.03082C16.8165 5.41446 16.231 4.93465 15.5478 4.63269C15.4761 3.82343 15.122 3.07266 14.5365 2.49831C13.8939 1.86793 13.0441 1.52076 12.1438 1.52076C11.2436 1.52076 10.394 1.86778 9.75145 2.49793C9.56382 2.68193 9.40024 2.88426 9.26179 3.10061C9.18775 2.29571 8.8345 1.54923 8.25175 0.977592C7.6092 0.347169 6.75943 0 5.85908 0C4.95894 0 4.10935 0.347028 3.4668 0.97717C2.88141 1.55124 2.52725 2.30165 2.45525 3.11063C1.77121 3.41224 1.18512 3.89205 0.750306 4.50873C0.259454 5.20489 0 6.02456 0 6.87914C0 9.15006 1.8475 10.9976 4.11842 10.9976C4.2658 10.9976 4.41398 10.9892 4.56005 10.9736L4.73123 11.1448V13.8015C4.73123 14.5692 4.45789 15.3147 3.96148 15.9004C3.83598 16.0485 3.85429 16.2704 4.00244 16.3959C4.15052 16.5214 4.37239 16.5031 4.49793 16.355C5.10178 15.6423 5.43436 14.7355 5.43436 13.8014V10.9991C5.43436 10.9059 5.3973 10.8165 5.33138 10.7506L3.17022 8.58939C3.02643 8.44557 3.02643 8.21157 3.17022 8.06781C3.23987 7.99813 3.3325 7.95978 3.43101 7.95978C3.52952 7.95978 3.62215 7.99813 3.6918 8.06781L4.83424 9.21025C4.93475 9.3108 5.08599 9.34089 5.21734 9.28644C5.34872 9.23201 5.43436 9.10383 5.43436 8.96163V5.40092C5.43436 5.16675 5.62487 4.9762 5.85908 4.9762C6.09329 4.9762 6.2838 5.16671 6.2838 5.40092V13.8015C6.2838 14.7355 6.61635 15.6424 7.22019 16.355C7.28973 16.4371 7.38884 16.4793 7.48857 16.4793C7.56887 16.4793 7.64963 16.4519 7.71568 16.3959C7.8638 16.2704 7.88215 16.0485 7.75664 15.9004C7.26027 15.3147 6.98693 14.5692 6.98693 13.8015V10.6978C7.7275 11.7952 8.98244 12.5183 10.4031 12.5183C10.4614 12.5183 10.52 12.5167 10.5785 12.5142L11.0159 12.9517V15.3222C11.0159 16.09 10.7426 16.8354 10.2462 17.4212C10.1207 17.5693 10.139 17.7912 10.2872 17.9167C10.4353 18.0422 10.6571 18.0239 10.7827 17.8757C11.3865 17.1631 11.7191 16.2562 11.7191 15.3222V12.806C11.7191 12.7128 11.682 12.6234 11.6161 12.5574L9.45487 10.3962C9.31108 10.2525 9.31108 10.0185 9.45487 9.87467C9.59866 9.73085 9.83266 9.73085 9.97645 9.87467L11.1189 11.0171C11.2194 11.1177 11.3706 11.1477 11.502 11.0933C11.6334 11.0389 11.719 10.9107 11.719 10.7685V7.20782C11.719 6.97361 11.9096 6.78309 12.1438 6.78309C12.3779 6.78309 12.5685 6.97361 12.5685 7.20782V9.41507C12.5685 9.55724 12.6542 9.68546 12.7855 9.73988C12.9169 9.7943 13.0681 9.76421 13.1686 9.66366L14.311 8.52122C14.3807 8.45158 14.4733 8.41322 14.5719 8.41322C14.6704 8.41322 14.763 8.45158 14.8327 8.52122C14.9764 8.66505 14.9764 8.89905 14.8327 9.0428L12.6714 11.204C12.6055 11.27 12.5685 11.3594 12.5685 11.4526V15.3222C12.5685 16.2563 12.901 17.1632 13.5049 17.8758C13.5744 17.9578 13.6735 18.0001 13.7733 18C13.8536 18 13.9343 17.9727 14.0004 17.9167C14.1485 17.7911 14.1668 17.5693 14.0413 17.4212C13.545 16.8354 13.2716 16.09 13.2716 15.3222V12.4729C13.473 12.5028 13.6769 12.5183 13.8816 12.5183ZM5.85908 4.27311C5.2372 4.27311 4.73123 4.77904 4.73123 5.40096V8.11292L4.18894 7.57067C3.98648 7.3682 3.71729 7.25669 3.43094 7.25669C3.14459 7.25669 2.8754 7.3682 2.67293 7.57067C2.25507 7.9886 2.25503 8.66863 2.67293 9.08661L3.87187 10.2855C2.10337 10.1587 0.703126 8.67946 0.703126 6.87914C0.703126 5.46396 1.593 4.17878 2.91748 3.68115C3.05202 3.63059 3.14227 3.50326 3.14529 3.35957C3.16052 2.64671 3.4495 1.97891 3.95906 1.4792C4.46942 0.978717 5.14421 0.703126 5.85908 0.703126C6.57416 0.703126 7.24906 0.978857 7.75942 1.47948C8.26905 1.97941 8.55792 2.64745 8.5729 3.36049C8.57592 3.5041 8.66603 3.63147 8.80047 3.6821C8.84803 3.70003 8.89525 3.71947 8.94222 3.73965C8.83587 4.0241 8.76735 4.32342 8.73993 4.63135C8.05589 4.93296 7.46984 5.41277 7.03502 6.02945C7.0185 6.05286 7.00296 6.07677 6.98697 6.10046V5.40092C6.98697 4.77904 6.481 4.27311 5.85908 4.27311ZM15.3299 9.53998C15.7478 9.12204 15.7478 8.44201 15.3299 8.02404C14.9119 7.60607 14.2319 7.60614 13.8139 8.02404L13.2716 8.56629V7.20778C13.2716 6.5859 12.7657 6.07993 12.1438 6.07993C11.5219 6.07993 11.0159 6.5859 11.0159 7.20778V9.91971L10.4737 9.37742C10.0557 8.95952 9.37566 8.95941 8.95769 9.37742C8.53978 9.79536 8.53978 10.4754 8.95769 10.8934L9.83132 11.767C8.2194 11.4941 6.98781 10.0882 6.98781 8.39983C6.98781 6.98464 7.87769 5.69947 9.2022 5.20183C9.33671 5.15128 9.42695 5.02391 9.43001 4.88026C9.4452 4.16739 9.73419 3.4996 10.2437 2.99989C10.7541 2.49944 11.4288 2.22385 12.1438 2.22385C12.8588 2.22385 13.5337 2.49958 14.0441 3.0002C14.5537 3.50013 14.8426 4.16817 14.8575 4.88121C14.8606 5.02486 14.9507 5.15219 15.0852 5.20285C15.7282 5.44508 16.2783 5.87142 16.6759 6.43575C17.0822 7.01249 17.2969 7.69167 17.2969 8.3999C17.2969 10.2831 15.7648 11.8152 13.8816 11.8152C13.6763 11.8152 13.4721 11.7966 13.2716 11.7605V11.5982L15.3299 9.53998Z" fill="#87AE1B"/>
<path d="M11.9482 4.94C12.3249 4.94 12.6302 4.63464 12.6302 4.25796C12.6302 3.88128 12.3249 3.57593 11.9482 3.57593C11.5715 3.57593 11.2662 3.88128 11.2662 4.25796C11.2662 4.63464 11.5715 4.94 11.9482 4.94Z" fill="#87AE1B"/>
<path d="M5.8591 3.12188C6.23577 3.12188 6.54113 2.81652 6.54113 2.43985C6.54113 2.06317 6.23577 1.75781 5.8591 1.75781C5.48242 1.75781 5.17706 2.06317 5.17706 2.43985C5.17706 2.81652 5.48242 3.12188 5.8591 3.12188Z" fill="#87AE1B"/>
<path d="M14.5297 7.09561C14.8875 7.09561 15.1775 6.80562 15.1775 6.44789C15.1775 6.09017 14.8875 5.80017 14.5297 5.80017C14.172 5.80017 13.882 6.09017 13.882 6.44789C13.882 6.80562 14.172 7.09561 14.5297 7.09561Z" fill="#87AE1B"/>
<path d="M9.16658 8.09867C9.52431 8.09867 9.8143 7.80867 9.8143 7.45094C9.8143 7.09322 9.52431 6.80322 9.16658 6.80322C8.80885 6.80322 8.51886 7.09322 8.51886 7.45094C8.51886 7.80867 8.80885 8.09867 9.16658 8.09867Z" fill="#87AE1B"/>
<path d="M3.08882 6.1398C3.44655 6.1398 3.73654 5.84981 3.73654 5.49208C3.73654 5.13435 3.44655 4.84436 3.08882 4.84436C2.7311 4.84436 2.4411 5.13435 2.4411 5.49208C2.4411 5.84981 2.7311 6.1398 3.08882 6.1398Z" fill="#87AE1B"/>
</svg>
