<svg width="16" height="16" viewBox="0 0 16 16" fill="none" xmlns="http://www.w3.org/2000/svg">
<path d="M10.5 7.75H14.5V7H14V5.5H13.75V4.25H13.25V5.5H13V7H10.5V7.75Z" fill="#FCFCFC"/>
<path d="M8.75 0.75H8.25V1.995L8.75 1.895V0.75Z" fill="#FCFCFC"/>
<path d="M9.75 0.25H9.25V1.795L9.75 1.695V0.25Z" fill="#FCFCFC"/>
<path d="M10.75 0.75H10.25V1.595L10.75 1.495V0.75Z" fill="#FCFCFC"/>
<path d="M9.1875 13.6099C9.3645 13.5377 9.555 13.4999 9.75 13.4999V7.74993H10V6.49993H11.75V1.80493L7.25 2.70493V13.0632C7.4105 13.0222 7.578 12.9999 7.75 12.9999C8.29875 12.9999 8.8155 13.2254 9.1875 13.6099ZM10 3.49993H11V4.99993H10V3.49993ZM8 3.49993H9V4.99993H8V3.49993ZM8 5.99993H9V7.49993H8V5.99993ZM8 8.49993H9V9.99993H8V8.49993ZM8 10.9999H9V12.4999H8V10.9999Z" fill="#FCFCFC"/>
<path d="M11.75 13C11.922 13 12.0892 13.0232 12.25 13.0647V9.25H11.25V13.0662C11.4115 13.0242 11.5788 13 11.75 13Z" fill="#FCFCFC"/>
<path d="M13.4823 14H13.5C13.5847 14 13.6675 14.0092 13.75 14.0197V9.25H12.75V13.2673C13.0513 13.4412 13.3053 13.6923 13.4823 14Z" fill="#FCFCFC"/>
<path d="M14.75 14.4465V8.25H10.25V13.5915C10.2705 13.5988 10.2922 13.602 10.3125 13.6103C10.442 13.4763 10.59 13.363 10.75 13.2705V8.75H14.25V14.1525C14.4307 14.2263 14.5985 14.3247 14.75 14.4465Z" fill="#FCFCFC"/>
<path d="M14.796 15.25C14.5365 14.8025 14.0545 14.5 13.5 14.5C13.3888 14.5 13.2805 14.513 13.176 14.536C12.9805 13.935 12.4165 13.5 11.75 13.5C11.1842 13.5 10.692 13.8135 10.4365 14.276C10.2572 14.106 10.0165 14 9.75 14C9.4835 14 9.24275 14.106 9.0635 14.276C8.808 13.8135 8.31575 13.5 7.75 13.5C7.076 13.5 6.50625 13.9445 6.317 14.556C6.21675 14.5225 6.1115 14.5 6 14.5L5.87125 14.509C5.69975 14.205 5.37375 14 5 14C4.44775 14 4 14.4478 4 15C4 15.0865 4.01175 15.17 4.03225 15.25H3.5235C3.5095 15.1675 3.5 15.0843 3.5 15C3.5 14.1728 4.17275 13.5 5 13.5C5.4 13.5 5.77825 13.6605 6.05575 13.9345C6.23 13.6555 6.46975 13.428 6.75 13.2668V4.25H3.25V6.895C3.42625 6.96425 3.5945 7.056 3.75 7.172V6.75H4.25V7.25H3.8455C3.93775 7.327 4.0265 7.40975 4.108 7.503C4.4185 7.51925 4.71175 7.60725 4.977 7.75H5.25V7.92525C5.85175 8.37425 6.25 9.13575 6.25 10C6.25 11.086 5.6225 12.0097 4.75 12.3542V12.7778L3.25 14.5275V15.25H2.75V14.3422L4.25 12.5925V11.9773C5.0965 11.8377 5.75 11.0055 5.75 10C5.75 8.89725 4.96475 8 4 8C3.957 8 3.913 8.00275 3.8685 8.007C3.5475 7.5465 3.05375 7.25 2.5 7.25C1.53525 7.25 0.75 8.14725 0.75 9.25C0.75 10.2555 1.4035 11.0877 2.25 11.2273V9H2.75V11.3945C3.018 11.7095 3.3685 11.9135 3.75 11.977V12.4075L2.75 13.5743V11.3945C2.70875 11.346 2.66875 11.2958 2.6315 11.2423C2.588 11.246 2.5445 11.25 2.5 11.25C2.415 11.25 2.332 11.2408 2.25 11.2273V11.553C2.04075 11.3638 1.7815 11.25 1.5 11.25C0.81075 11.25 0.25 11.9227 0.25 12.75C0.25 13.4745 0.68025 14.0803 1.25 14.2198V15.25H0.25V15.75H15.75V15.25H14.796ZM4.25 6.25H3.75V5.75H4.25V6.25ZM4.25 5.25H3.75V4.75H4.25V5.25ZM5.25 7.25H4.75V6.75H5.25V7.25ZM5.25 6.25H4.75V5.75H5.25V6.25ZM5.25 5.25H4.75V4.75H5.25V5.25ZM5.75 4.75H6.25V5.25H5.75V4.75ZM5.75 5.75H6.25V6.25H5.75V5.75ZM5.75 6.75H6.25V7.25H5.75V6.75ZM5.75 8.25V7.75H6.25V8.25H5.75ZM1.75 14.2198C1.935 14.1745 2.1045 14.0788 2.25 13.9473V15.25H1.75V14.2198Z" fill="#FCFCFC"/>
</svg>
