<svg width="16" height="16" viewBox="0 0 16 16" fill="none" xmlns="http://www.w3.org/2000/svg">
<g clip-path="url(#clip0)">
<path d="M2.46666 1.17468L4.06133 5.62468H0L2.46666 1.17468Z" fill="#FCFCFC"/>
<path d="M7.37334 1.21533L4.86534 4.84467L3.38 0.706665H7.02534L7.37334 1.21533Z" fill="#FCFCFC"/>
<path d="M10.4327 5.62464H5.56732L7.99999 2.11731L10.4327 5.62464Z" fill="#FCFCFC"/>
<path d="M12.62 0.706665L11.1413 4.84467L8.62665 1.21533L8.97465 0.706665H12.62Z" fill="#FCFCFC"/>
<path d="M16 5.62468H11.9453L13.54 1.17468L16 5.62468Z" fill="#FCFCFC"/>
<path d="M7.54335 15.3734L7.42068 15.224L0.150024 6.6427H4.42269L7.45468 15.122L7.54335 15.3734Z" fill="#FCFCFC"/>
<path d="M10.494 6.6427L7.99998 13.6094L5.50598 6.6427H10.494Z" fill="#FCFCFC"/>
<path d="M15.85 6.6427L8.57933 15.224L8.45667 15.3667L8.538 15.1294L11.5773 6.6427H15.85Z" fill="#FCFCFC"/>
</g>
<defs>
<clipPath id="clip0">
<rect width="16" height="16" fill="white"/>
</clipPath>
</defs>
</svg>
