<svg width="16" height="16" viewBox="0 0 16 16" fill="none" xmlns="http://www.w3.org/2000/svg">
<path d="M12.5019 9.31627C12.4327 9.31627 12.3614 9.32623 12.2901 9.34591L12.0217 9.41985L11.6264 8.45685C11.4048 7.91698 10.7497 7.47778 10.166 7.47778H5.82692C5.24332 7.47778 4.58814 7.91705 4.36657 8.45691L3.97192 9.41814L3.70999 9.34597C3.63865 9.3263 3.56738 9.31633 3.49813 9.31633C3.15001 9.31633 2.89728 9.56608 2.89728 9.91014C2.89728 10.2498 3.14519 10.5358 3.48119 10.6217C3.29694 11.1305 3.15375 11.8932 3.15375 12.3943V14.4435C3.15375 14.881 3.50962 15.2368 3.94711 15.2368H4.23798C4.67547 15.2368 5.03134 14.881 5.03134 14.4435V14.0601H10.9615V14.4435C10.9615 14.881 11.3174 15.2368 11.7549 15.2368H12.0459C12.4834 15.2368 12.8392 14.881 12.8392 14.4435V12.3943C12.8392 11.8937 12.6963 11.132 12.5124 10.6232C12.8517 10.5394 13.1028 10.2519 13.1028 9.91014C13.1027 9.56602 12.8501 9.31627 12.5019 9.31627ZM4.46514 10.1159L5.11004 8.54481C5.24263 8.22189 5.6367 7.95767 5.98578 7.95767H10.0073C10.3564 7.95767 10.7505 8.22189 10.8831 8.54481L11.528 10.1159C11.6605 10.4388 11.4834 10.7031 11.1343 10.7031H4.85877C4.50969 10.7031 4.33255 10.4388 4.46514 10.1159ZM6.17498 12.6706C6.17498 12.8451 6.03217 12.9879 5.85763 12.9879H4.54143C4.36689 12.9879 4.22408 12.8451 4.22408 12.6706V12.1456C4.22408 11.9711 4.36689 11.8283 4.54143 11.8283H5.85763C6.03217 11.8283 6.17498 11.9711 6.17498 12.1456V12.6706ZM11.7545 12.6706C11.7545 12.8451 11.6117 12.9879 11.4372 12.9879H10.1211C9.94658 12.9879 9.80378 12.8451 9.80378 12.6706V12.1456C9.80378 11.9711 9.94658 11.8283 10.1211 11.8283H11.4372C11.6117 11.8283 11.7545 11.9711 11.7545 12.1456V12.6706Z" fill="#FCFCFC"/>
<path d="M15.6478 4.54051L8.35403 0.265091C8.25724 0.20835 8.13151 0.177124 8 0.177124C7.86849 0.177124 7.74276 0.20835 7.64597 0.265091L0.352186 4.54051C0.151436 4.65818 0 4.92246 0 5.1552V15.3471C0 15.6095 0.213508 15.8231 0.476013 15.8231H1.29552C1.55802 15.8231 1.77153 15.6095 1.77153 15.3471V6.72249C1.77153 6.63503 1.84268 6.56382 1.9302 6.56382H14.0697C14.1572 6.56382 14.2283 6.63503 14.2283 6.72249V15.3471C14.2283 15.6095 14.4419 15.8231 14.7044 15.8231H15.5239C15.7864 15.8231 15.9999 15.6095 15.9999 15.3471V5.1552C16 4.92246 15.8486 4.65818 15.6478 4.54051Z" fill="#FCFCFC"/>
</svg>
