<svg width="16" height="16" viewBox="0 0 16 16" fill="none" xmlns="http://www.w3.org/2000/svg">
<path d="M7.53125 7.38171V9.50625C7.53125 9.76512 7.74112 9.975 8 9.975C8.25888 9.975 8.46875 9.76512 8.46875 9.50625V7.38171C8.31378 7.39212 8.15756 7.3979 8 7.3979C7.84244 7.3979 7.68622 7.39212 7.53125 7.38171Z" fill="#FCFCFC"/>
<path d="M7.99999 6.46041C11.3038 6.46041 13.9916 3.77256 13.9916 0.46875C13.9916 0.209875 13.7813 0 13.5224 0C11.0421 0 8.90911 1.51503 7.99999 3.66825C7.09083 1.51503 4.95774 0 2.47708 0C2.21821 0 2.00833 0.209875 2.00833 0.46875C2.00833 3.77256 4.69618 6.46041 7.99999 6.46041Z" fill="#FCFCFC"/>
<path d="M5.22006 9.57791C4.79778 9.15563 4.09853 9.14756 3.68441 9.57785C3.28306 9.99485 3.28791 10.6582 3.69897 11.0693L4.81691 12.1872C4.99994 12.3703 4.99994 12.667 4.81691 12.8501C4.63388 13.0332 4.33706 13.0331 4.154 12.8501L2.14563 10.8418C2.05772 10.7539 2.00831 10.6347 2.00831 10.5103V6.56553C2.00831 5.73356 1.34278 5.02075 0.46925 5.02075H0.46875C0.209875 5.02075 0 5.23063 0 5.4895V11.5145C0 11.6388 0.049375 11.758 0.137281 11.8459L3.0125 14.7212V15.5312C3.0125 15.7901 3.22237 15.9999 3.48125 15.9999H6.99584C7.25472 15.9999 7.46459 15.7901 7.46459 15.5312V12.8486C7.46459 12.1916 7.20359 11.5615 6.73903 11.0969L5.22006 9.57791Z" fill="#FCFCFC"/>
<path d="M15.5312 5.02087H15.5307C14.6572 5.02087 13.9917 5.73369 13.9917 6.56566V10.5105C13.9917 10.6348 13.9423 10.754 13.8544 10.8419L11.846 12.8503C11.663 13.0333 11.3662 13.0333 11.1831 12.8503C11.0001 12.6672 11.0001 12.3704 11.1831 12.1874L12.3011 11.0694C12.7121 10.6584 12.7169 9.995 12.3156 9.57803C11.9015 9.14775 11.2022 9.15578 10.7799 9.57809L9.26096 11.0971C8.7964 11.5616 8.5354 12.1917 8.5354 12.8487V15.5313C8.5354 15.7902 8.74528 16 9.00415 16H12.5187C12.7776 16 12.9875 15.7902 12.9875 15.5313V14.7213L15.8627 11.8461C15.9506 11.7582 16 11.6389 16 11.5146V5.48962C16 5.23072 15.7901 5.02087 15.5312 5.02087Z" fill="#FCFCFC"/>
</svg>
