<svg width="16" height="16" viewBox="0 0 16 16" fill="none" xmlns="http://www.w3.org/2000/svg">
<path d="M3.54609 12.0931L12.0931 3.54609C12.437 3.20227 12.437 2.6446 12.0931 2.30055L11.321 1.5284L10.8229 1.03024L10.0505 0.257866C9.70668 -0.0859554 9.14901 -0.0859554 8.80496 0.257866L0.257866 8.80496C-0.0859554 9.14878 -0.0859554 9.70645 0.257866 10.0505L2.3005 12.0931C2.6446 12.437 3.202 12.437 3.54609 12.0931Z" fill="#FCFCFC"/>
<path d="M11.9045 0.944563L11.4064 0.446411L11.0894 0.763408L11.5875 1.26156L11.9045 0.944563Z" fill="#FCFCFC"/>
<path d="M15.6465 13.9396L11.5512 9.84436L9.84434 11.5513L13.9396 15.6465C14.4109 16.1178 15.1752 16.1178 15.6465 15.6465C16.1178 15.1752 16.1178 14.4109 15.6465 13.9396Z" fill="#FCFCFC"/>
<path d="M10.4378 9.93968L9.73071 9.23256C9.20337 8.70525 8.2156 8.83482 7.52886 9.52156L3.52548 13.5252C3.11337 13.9373 2.44309 13.9373 2.03098 13.5252L1.425 12.9192C1.06911 12.5633 1.02216 12.0154 1.28106 11.607L0.775725 11.1017C0.2463 11.7917 0.295605 12.7862 0.926802 13.4176L1.53278 14.0236C2.21952 14.7104 3.33689 14.7104 4.02363 14.0236L8.02702 10.0202C8.46732 9.5799 9.01573 9.51442 9.23251 9.73121L9.93963 10.4383L10.4378 9.93968Z" fill="#FCFCFC"/>
</svg>
