<svg width="16" height="16" viewBox="0 0 16 16" fill="none" xmlns="http://www.w3.org/2000/svg">
<g clip-path="url(#clip0)">
<path d="M9.56054 0.913402L9.26294 0.0205078L7.99998 0.441496L6.73702 0.0205078L6.43942 0.913402L7.99998 1.43359L9.56054 0.913402Z" fill="#FCFCFC"/>
<path d="M8.79233 3.73688L10.3529 4.25707L11.9135 3.73688L11.6159 2.84399L10.3529 3.26498L9.08993 2.84399L8.79233 3.73688Z" fill="#FCFCFC"/>
<path d="M14.5882 13.6435H13.647V15.0552H7.99998V13.6435H7.05881V15.0552H3.2941V10.8199H2.35293V15.0552H-1.52588e-05V15.9964H16V15.0552H14.5882V13.6435Z" fill="#FCFCFC"/>
<path d="M14.1176 9.87872H15.5294V8.93754H14.1176V7.99637H15.5294V7.05519H14.1176V6.11401H13.1765V7.05519H8.47059V6.11401H7.52941V7.05519H6.58824V7.99637H7.52941V8.93754H6.58824V9.87872H7.52941V11.2905H5.64706V12.7022H16V11.2905H14.1176V9.87872ZM8.47059 7.99637H13.1765V8.93754H8.47059V7.99637ZM8.47059 11.2905V9.87872H13.1765V11.2905H8.47059Z" fill="#FCFCFC"/>
<path d="M1.967 9.87865H3.68007C4.27157 9.87865 4.82586 9.61632 5.20089 9.15891C5.57039 8.70814 5.72001 8.12371 5.61328 7.55175L5.12663 2.4523L5.12522 2.43947C4.73798 -0.176844 1.05039 -0.175055 0.664132 2.43947L0.0350814 7.54494C-0.0740951 8.11909 0.0752069 8.70636 0.446187 9.15887C0.821215 9.61629 1.37551 9.87865 1.967 9.87865Z" fill="#FCFCFC"/>
<path d="M14.5882 2.8199C15.3667 2.8199 15.9999 2.18655 15.9999 1.40813C15.9224 -0.464777 13.2537 -0.464212 13.1764 1.40813C13.1764 2.18655 13.8097 2.8199 14.5882 2.8199Z" fill="#FCFCFC"/>
</g>
<defs>
<clipPath id="clip0">
<rect width="16" height="16" fill="white"/>
</clipPath>
</defs>
</svg>
