<svg width="16" height="16" viewBox="0 0 16 16" fill="none" xmlns="http://www.w3.org/2000/svg">
<path d="M2.75 9.5C2.6837 9.5 2.62011 9.52634 2.57322 9.57322C2.52634 9.62011 2.5 9.6837 2.5 9.75V13.25C2.5 13.3163 2.52634 13.3799 2.57322 13.4268C2.62011 13.4737 2.6837 13.5 2.75 13.5C2.8163 13.5 2.87989 13.4737 2.92678 13.4268C2.97366 13.3799 3 13.3163 3 13.25V9.75C3 9.6837 2.97366 9.62011 2.92678 9.57322C2.87989 9.52634 2.8163 9.5 2.75 9.5Z" fill="#FCFCFC"/>
<path d="M1 14.1465L2 13.1465V10H1V14.1465Z" fill="#FCFCFC"/>
<path d="M5.61776 8.52925L7.43776 9.5H13.3223C13.8915 9.25525 14.1675 9.139 14.3038 9.0835L14.8455 8H1.15451L1.90451 9.5H2.04601C2.09394 9.36235 2.1812 9.24179 2.29699 9.15326C2.41278 9.06473 2.552 9.01212 2.6974 9.00195C2.8428 8.99178 2.98799 9.0245 3.11497 9.09606C3.24195 9.16762 3.34514 9.27486 3.41176 9.4045L5.39851 8.5215C5.43324 8.50604 5.47104 8.4987 5.50903 8.50004C5.54702 8.50138 5.58421 8.51137 5.61776 8.52925Z" fill="#FCFCFC"/>
<path d="M7.25 1H3.75V7.5H7.25V1ZM4.75 7H4.25V6.5H4.75V7ZM4.75 6H4.25V5.5H4.75V6ZM4.75 5H4.25V4.5H4.75V5ZM4.75 4H4.25V3.5H4.75V4ZM4.75 3H4.25V2.5H4.75V3ZM4.75 2H4.25V1.5H4.75V2ZM5.75 7H5.25V6.5H5.75V7ZM5.75 6H5.25V5.5H5.75V6ZM5.75 5H5.25V4.5H5.75V5ZM5.75 4H5.25V3.5H5.75V4ZM5.75 3H5.25V2.5H5.75V3ZM5.75 2H5.25V1.5H5.75V2ZM6.75 7H6.25V6.5H6.75V7ZM6.75 6H6.25V5.5H6.75V6ZM6.75 5H6.25V4.5H6.75V5ZM6.75 4H6.25V3.5H6.75V4ZM6.75 3H6.25V2.5H6.75V3ZM6.75 2H6.25V1.5H6.75V2Z" fill="#FCFCFC"/>
<path d="M12.25 3H7.75V7.5H12.25V3ZM8.75 7H8.25V6.5H8.75V7ZM8.75 6H8.25V5.5H8.75V6ZM8.75 5H8.25V4.5H8.75V5ZM8.75 4H8.25V3.5H8.75V4ZM9.75 7H9.25V6.5H9.75V7ZM9.75 6H9.25V5.5H9.75V6ZM9.75 5H9.25V4.5H9.75V5ZM9.75 4H9.25V3.5H9.75V4ZM10.75 7H10.25V6.5H10.75V7ZM10.75 6H10.25V5.5H10.75V6ZM10.75 5H10.25V4.5H10.75V5ZM10.75 4H10.25V3.5H10.75V4ZM11.75 7H11.25V6.5H11.75V7ZM11.75 6H11.25V5.5H11.75V6ZM11.75 5H11.25V4.5H11.75V5ZM11.75 4H11.25V3.5H11.75V4Z" fill="#FCFCFC"/>
<path d="M14.8595 9.60845C14.8184 9.57352 14.7706 9.54736 14.719 9.53158C14.6674 9.5158 14.6131 9.51074 14.5595 9.5167C14.3595 9.5917 11.283 10.9265 9.2295 11.8212C9.0959 11.9357 8.92596 11.9991 8.75 12H5.5V11.5H8.75C8.8163 11.5 8.87989 11.4736 8.92678 11.4267C8.97366 11.3798 9 11.3163 9 11.25V10.9L5.49 9.02795L3.5 9.91245V13.084L7.97075 14.9665L14.828 10.2365C14.8806 10.2002 14.9236 10.1518 14.9536 10.0955C14.9835 10.0391 14.9994 9.9763 15 9.91245C15.0009 9.85448 14.9888 9.79705 14.9644 9.74442C14.9401 9.69179 14.9042 9.64532 14.8595 9.60845Z" fill="#FCFCFC"/>
<path d="M12.1648 10H8.375L9.3675 10.5293C9.40753 10.5506 9.44101 10.5824 9.46435 10.6213C9.48769 10.6601 9.50002 10.7046 9.5 10.75V11.1582C10.627 10.6672 11.4955 10.29 12.1648 10Z" fill="#FCFCFC"/>
</svg>
