<svg width="24" height="12" viewBox="0 0 24 12" fill="none" xmlns="http://www.w3.org/2000/svg">
<path d="M0.937861 6.93751L20.7921 6.93751L17.5032 10.2105C17.1362 10.5758 17.1348 11.1693 17.5001 11.5363C17.8653 11.9033 18.4589 11.9047 18.8259 11.5395L23.7245 6.66451C23.7249 6.66423 23.7251 6.6639 23.7254 6.66362C24.0914 6.29837 24.0926 5.70287 23.7255 5.3364C23.7251 5.33612 23.7249 5.33579 23.7246 5.33551L18.826 0.460518C18.4591 0.0953631 17.8654 0.0966286 17.5001 0.463705C17.1349 0.83069 17.1363 1.42427 17.5033 1.78952L20.7921 5.06251L0.937861 5.06251C0.420079 5.06251 0.000361042 5.48223 0.000360997 6.00001C0.000360952 6.51779 0.420079 6.93751 0.937861 6.93751Z" fill="#FCFCFC"/>
</svg>
