<svg width="40" height="40" viewBox="0 0 40 40" fill="none" xmlns="http://www.w3.org/2000/svg">
<path d="M20 0C12.9715 0 7.10938 5.66172 7.10938 12.8906C7.10938 15.6408 7.93578 18.0931 9.5218 20.3911L19.0135 35.202C19.474 35.922 20.527 35.9206 20.9865 35.202L30.5194 20.3407C32.0713 18.1469 32.8906 15.5709 32.8906 12.8906C32.8906 5.78273 27.1079 0 20 0ZM20 18.75C16.7693 18.75 14.1406 16.1213 14.1406 12.8906C14.1406 9.65992 16.7693 7.03125 20 7.03125C23.2307 7.03125 25.8594 9.65992 25.8594 12.8906C25.8594 16.1213 23.2307 18.75 20 18.75Z" fill="#87AE1B"/>
<path d="M29.1613 26.9287L23.2604 36.1543C21.733 38.5357 18.2585 38.5279 16.7384 36.1565L10.828 26.9311C5.62766 28.1335 2.42188 30.3361 2.42188 32.9682C2.42188 37.5355 11.4788 39.9994 20 39.9994C28.5212 39.9994 37.5781 37.5355 37.5781 32.9682C37.5781 30.3342 34.3679 28.1304 29.1613 26.9287Z" fill="#87AE1B"/>
</svg>
