<svg width="40" height="40" viewBox="0 0 40 40" fill="none" xmlns="http://www.w3.org/2000/svg">
<path d="M37.8386 37.6562V0H31.278L22.5469 9.14664V37.6562H20.2031V11.2302L11.4845 20.3638V37.6562H5.50781V35.1763C7.33094 34.6637 8.67188 32.9873 8.67188 31.0027C8.67188 28.6118 6.7268 26.6667 4.33594 26.6667C1.94508 26.6667 0 28.6117 0 31.0026C0 32.9873 1.34094 34.6637 3.16406 35.1763V37.6562H0V40H40V37.6562H37.8386ZM17.0195 33.3334H14.6758V30H17.0195V33.3334ZM17.0195 25.8334H14.6758V22.5H17.0195V25.8334ZM29.1497 33.3334H26.8059V30H29.1497V33.3334ZM29.1497 25.8334H26.8059V22.5H29.1497V25.8334ZM29.1497 18.3334H26.8059V15H29.1497V18.3334ZM33.5795 33.3334H31.2357V30H33.5795V33.3334ZM33.5795 25.8334H31.2357V22.5H33.5795V25.8334ZM33.5795 18.3334H31.2357V15H33.5795V18.3334ZM33.5795 10.8334H31.2357V7.5H33.5795V10.8334Z" fill="#87AE1B"/>
</svg>
