<svg width="40" height="40" viewBox="0 0 40 40" fill="none" xmlns="http://www.w3.org/2000/svg">
<path d="M1.50072 7.77759H17.0553C17.8841 7.77759 18.556 7.10575 18.556 6.27687V1.72301C18.556 0.894214 17.8841 0.22229 17.0553 0.22229H1.50072C0.671924 0.22229 0 0.894129 0 1.72301V6.27695C0 7.10575 0.671924 7.77759 1.50072 7.77759Z" fill="#87AE1B"/>
<path d="M22.834 7.77759H38.3887C39.2175 7.77759 39.8893 7.10575 39.8893 6.27687V1.72301C39.8893 0.894214 39.2175 0.22229 38.3887 0.22229H22.834C22.0052 0.22229 21.3334 0.894129 21.3334 1.72301V6.27695C21.3334 7.10575 22.0052 7.77759 22.834 7.77759Z" fill="#87AE1B"/>
<path d="M27.8327 10.8889H12.278C11.4492 10.8889 10.7774 11.5608 10.7774 12.3896V16.9436C10.7774 17.7724 11.4493 18.4443 12.278 18.4443H27.8327C28.6615 18.4443 29.3334 17.7724 29.3334 16.9436V12.3896C29.3334 11.5608 28.6614 10.8889 27.8327 10.8889Z" fill="#87AE1B"/>
<path d="M33.6113 10.8889C32.7825 10.8889 32.1107 11.5608 32.1107 12.3896V16.9436C32.1107 17.7724 32.7826 18.4443 33.6113 18.4443H40V10.8889H33.6113Z" fill="#87AE1B"/>
<path d="M0.110748 10.8889V18.4443H6.49943C7.32823 18.4443 8.00007 17.7724 8.00007 16.9436V12.3896C8.00007 11.5608 7.32823 10.8889 6.49943 10.8889H0.110748Z" fill="#87AE1B"/>
<path d="M27.8327 32.2224H12.278C11.4492 32.2224 10.7774 32.8942 10.7774 33.723V38.2771C10.7774 39.106 11.4493 39.7778 12.278 39.7778H27.8327C28.6615 39.7778 29.3334 39.106 29.3334 38.2771V33.723C29.3334 32.8943 28.6614 32.2224 27.8327 32.2224Z" fill="#87AE1B"/>
<path d="M32.1107 33.7229V38.277C32.1107 39.1058 32.7826 39.7777 33.6113 39.7777H40V32.2223H33.6113C32.7825 32.2224 32.1107 32.8942 32.1107 33.7229Z" fill="#87AE1B"/>
<path d="M6.49943 32.2224H0.110748V39.7778H6.49943C7.32823 39.7778 8.00007 39.106 8.00007 38.2771V33.723C7.99998 32.8943 7.32814 32.2224 6.49943 32.2224Z" fill="#87AE1B"/>
<path d="M1.50072 29.111H17.0553C17.8841 29.111 18.556 28.4392 18.556 27.6103V23.0564C18.556 22.2276 17.8841 21.5557 17.0553 21.5557H1.50072C0.671924 21.5557 0 22.2275 0 23.0564V27.6103C0 28.4391 0.671924 29.111 1.50072 29.111Z" fill="#87AE1B"/>
<path d="M21.3334 23.0564V27.6103C21.3334 28.4391 22.0052 29.111 22.834 29.111H38.3887C39.2175 29.111 39.8893 28.4392 39.8893 27.6103V23.0564C39.8893 22.2276 39.2175 21.5557 38.3887 21.5557H22.834C22.0052 21.5557 21.3334 22.2275 21.3334 23.0564Z" fill="#87AE1B"/>
</svg>
