<svg width="40" height="40" viewBox="0 0 40 40" fill="none" xmlns="http://www.w3.org/2000/svg">
<path d="M3.75564 4.21815H3.82917C4.21666 4.21815 4.53061 4.53241 4.53061 4.9199V12.6373H7.33702V4.9199C7.33702 4.53241 7.65128 4.21815 8.03877 4.21815H9.41939L9.42885 4.12875L5.94358 0.0195312L2.43878 4.12875L2.4458 4.21967L3.75564 4.21815Z" fill="#87AE1B"/>
<path d="M35.4013 12.6373V4.9199C35.4013 4.53241 35.7153 4.21815 36.1028 4.21815H37.4834L37.4929 4.12875L34.0076 0.0195312L30.5031 4.12875L30.5101 4.21967L31.82 4.21815H31.8932C32.2807 4.21815 32.5949 4.53241 32.5949 4.9199V12.6373H35.4013Z" fill="#87AE1B"/>
<path d="M38.9092 12.6373H36.8045C36.8036 13.412 36.1757 14.0399 35.4013 14.0405H32.5949C31.8203 14.0399 31.1923 13.412 31.1917 12.6373H8.74022C8.7393 13.412 8.11169 14.0399 7.33702 14.0405H4.53062C3.75594 14.0399 3.12833 13.412 3.12741 12.6373H1.02277C0.635278 12.6379 0.32132 12.9516 0.321014 13.3391V35.0888C0.32132 35.476 0.635278 35.79 1.02277 35.7903H38.9092C39.2967 35.79 39.6106 35.476 39.6109 35.0888V13.3391C39.6106 12.9516 39.2967 12.6379 38.9092 12.6373ZM3.82917 33.6856C3.82917 34.0731 3.5149 34.3871 3.12741 34.3871C2.73993 34.3871 2.42597 34.0731 2.42597 33.6856V16.1455C2.42597 15.758 2.73993 15.444 3.12741 15.444C3.5149 15.444 3.82917 15.758 3.82917 16.1455V33.6856ZM6.63557 33.6856C6.63557 34.0731 6.3213 34.3871 5.93382 34.3871C5.54633 34.3871 5.23237 34.0731 5.23237 33.6856V16.1455C5.23237 15.758 5.54633 15.444 5.93382 15.444C6.3213 15.444 6.63557 15.758 6.63557 16.1455V33.6856ZM9.44197 33.6856C9.44197 34.0731 9.12771 34.3871 8.74022 34.3871C8.35273 34.3871 8.03877 34.0731 8.03877 33.6856V16.1455C8.03877 15.758 8.35273 15.444 8.74022 15.444C9.12771 15.444 9.44197 15.758 9.44197 16.1455V33.6856ZM12.2484 33.6856C12.2484 34.0731 11.9341 34.3871 11.5466 34.3871C11.1591 34.3871 10.8452 34.0731 10.8452 33.6856V16.1455C10.8452 15.758 11.1591 15.444 11.5466 15.444C11.9341 15.444 12.2484 15.758 12.2484 16.1455V33.6856ZM15.0548 33.6856C15.0548 34.0731 14.7405 34.3871 14.353 34.3871C13.9655 34.3871 13.6516 34.0731 13.6516 33.6856V16.1455C13.6516 15.758 13.9655 15.444 14.353 15.444C14.7405 15.444 15.0548 15.758 15.0548 16.1455V33.6856ZM17.8612 33.6856C17.8612 34.0731 17.5469 34.3871 17.1594 34.3871C16.7719 34.3871 16.458 34.0731 16.458 33.6856V16.1455C16.458 15.758 16.7719 15.444 17.1594 15.444C17.5469 15.444 17.8612 15.758 17.8612 16.1455V33.6856ZM20.6676 33.6856C20.6676 34.0731 20.3533 34.3871 19.9658 34.3871C19.5783 34.3871 19.2644 34.0731 19.2644 33.6856V16.1455C19.2644 15.758 19.5783 15.444 19.9658 15.444C20.3533 15.444 20.6676 15.758 20.6676 16.1455V33.6856ZM23.474 33.6856C23.474 34.0731 23.1597 34.3871 22.7722 34.3871C22.3847 34.3871 22.0708 34.0731 22.0708 33.6856V16.1455C22.0708 15.758 22.3847 15.444 22.7722 15.444C23.1597 15.444 23.474 15.758 23.474 16.1455V33.6856ZM26.2804 33.6856C26.2804 34.0731 25.9661 34.3871 25.5786 34.3871C25.1911 34.3871 24.8772 34.0731 24.8772 33.6856V16.1455C24.8772 15.758 25.1911 15.444 25.5786 15.444C25.9661 15.444 26.2804 15.758 26.2804 16.1455V33.6856ZM29.0868 33.6856C29.0868 34.0731 28.7725 34.3871 28.3853 34.3871C27.9978 34.3871 27.6836 34.0731 27.6836 33.6856V16.1455C27.6836 15.758 27.9978 15.444 28.3853 15.444C28.7725 15.444 29.0868 15.758 29.0868 16.1455V33.6856ZM31.8932 33.6856C31.8932 34.0731 31.5792 34.3871 31.1917 34.3871C30.8042 34.3871 30.49 34.0731 30.49 33.6856V16.1455C30.49 15.758 30.8042 15.444 31.1917 15.444C31.5792 15.444 31.8932 15.758 31.8932 16.1455V33.6856ZM34.6996 33.6856C34.6996 34.0731 34.3856 34.3871 33.9981 34.3871C33.6106 34.3871 33.2964 34.0731 33.2964 33.6856V16.1455C33.2964 15.758 33.6106 15.444 33.9981 15.444C34.3856 15.444 34.6996 15.758 34.6996 16.1455V33.6856ZM37.506 33.6856C37.506 34.0731 37.192 34.3871 36.8045 34.3871C36.417 34.3871 36.1028 34.0731 36.1028 33.6856V16.1455C36.1028 15.758 36.417 15.444 36.8045 15.444C37.192 15.444 37.506 15.758 37.506 16.1455V33.6856Z" fill="#87AE1B"/>
<path d="M13.8572 9.62617C13.9887 9.75768 14.1669 9.83151 14.353 9.83151C14.5391 9.83151 14.7176 9.75768 14.8491 9.62617C15.4727 8.90703 15.7974 7.97614 15.7562 7.02511C15.7971 6.07805 15.4758 5.15082 14.8573 4.43229C14.5007 3.97127 14.3216 3.39766 14.353 2.81551C14.3228 2.23763 14.4985 1.66738 14.8491 1.20697C15.0316 1.03062 15.1048 0.769749 15.0404 0.52444C14.9763 0.279132 14.7847 0.0875231 14.5394 0.02345C14.2941 -0.0406231 14.0332 0.0322982 13.8572 0.214754C13.2335 0.933898 12.9089 1.86448 12.9498 2.81551C12.9092 3.76288 13.2305 4.6898 13.8486 5.40864C14.2056 5.86936 14.3844 6.44327 14.353 7.02511C14.3838 7.60665 14.2053 8.17965 13.8502 8.64067C13.5826 8.91588 13.5856 9.35493 13.8572 9.62617Z" fill="#87AE1B"/>
<path d="M19.47 9.62617C19.6015 9.75768 19.78 9.83151 19.9658 9.83151C20.152 9.83151 20.3305 9.75768 20.462 9.62617C21.0856 8.90703 21.4102 7.97614 21.369 7.02511C21.4099 6.07805 21.0887 5.15082 20.4702 4.43229C20.1135 3.97127 19.9344 3.39766 19.9658 2.81551C19.9356 2.23763 20.1114 1.66738 20.462 1.20697C20.6444 1.03062 20.7176 0.769749 20.6533 0.52444C20.5892 0.279132 20.3976 0.0875231 20.1523 0.02345C19.907 -0.0406231 19.6461 0.0322982 19.47 0.214754C18.8464 0.933898 18.5218 1.86448 18.5626 2.81551C18.5221 3.76288 18.8433 4.6898 19.4618 5.40864C19.8185 5.86936 19.9973 6.44327 19.9658 7.02511C19.9967 7.60665 19.8182 8.17965 19.463 8.64067C19.1954 8.91588 19.1985 9.35493 19.47 9.62617Z" fill="#87AE1B"/>
<path d="M25.0828 9.62617C25.2143 9.75768 25.3928 9.83151 25.5786 9.83151C25.7647 9.83151 25.9432 9.75768 26.0747 9.62617C26.6984 8.90703 27.023 7.97614 26.9818 7.02511C27.0227 6.07805 26.7014 5.15082 26.083 4.43229C25.7263 3.97127 25.5475 3.39766 25.5786 2.81551C25.5484 2.23763 25.7242 1.66738 26.0747 1.20697C26.2572 1.03062 26.3304 0.769749 26.266 0.52444C26.202 0.279132 26.0104 0.0875231 25.765 0.02345C25.5197 -0.0406231 25.2589 0.0322982 25.0828 0.214754C24.4592 0.933898 24.1345 1.86448 24.1754 2.81551C24.1348 3.76288 24.4561 4.6898 25.0746 5.40864C25.4313 5.86936 25.6101 6.44327 25.5786 7.02511C25.6094 7.60665 25.431 8.17965 25.0758 8.64067C24.8082 8.91588 24.8113 9.35493 25.0828 9.62617Z" fill="#87AE1B"/>
<path d="M2.42598 38.5966C2.42598 39.3716 3.0542 39.9998 3.82918 39.9998C4.60416 39.9998 5.23238 39.3716 5.23238 38.5966V36.4919H2.42598V38.5966Z" fill="#87AE1B"/>
<path d="M34.6996 38.5966C34.6996 39.3716 35.3278 39.9998 36.1028 39.9998C36.8778 39.9998 37.506 39.3716 37.506 38.5966V36.4919H34.6996V38.5966Z" fill="#87AE1B"/>
</svg>
