<svg width="40" height="40" viewBox="0 0 40 40" fill="none" xmlns="http://www.w3.org/2000/svg">
<path d="M31.875 16.875H34.375V18.125H31.875V16.875Z" fill="#87AE1B"/>
<path d="M32.2412 1.875H7.75876L4.00876 5.625H35.9912L32.2412 1.875Z" fill="#87AE1B"/>
<path d="M16.875 30.625H23.125V31.875H16.875V30.625Z" fill="#87AE1B"/>
<path d="M24.375 30.625H30.625V31.875H24.375V30.625Z" fill="#87AE1B"/>
<path d="M26.875 33.125H28.125V35.625H26.875V33.125Z" fill="#87AE1B"/>
<path d="M9.375 15.625V19.375H14.375V15.625H9.375ZM13.125 18.125H10.625V16.875H13.125V18.125Z" fill="#87AE1B"/>
<path d="M5.625 35.625H10.625V33.125H8.75C8.40438 33.125 8.125 32.845 8.125 32.5V30C8.125 29.655 8.40438 29.375 8.75 29.375H9.375V27.5C9.375 25.7769 10.7769 24.375 12.5 24.375C14.2231 24.375 15.625 25.7769 15.625 27.5V29.375H16.25H16.875V27.5C16.875 25.7769 18.2769 24.375 20 24.375C21.7231 24.375 23.125 25.7769 23.125 27.5V29.375H23.75H24.375V27.5C24.375 25.7769 25.7769 24.375 27.5 24.375C29.2231 24.375 30.625 25.7769 30.625 27.5V29.375H31.25C31.5956 29.375 31.875 29.655 31.875 30V32.5C31.875 32.845 31.5956 33.125 31.25 33.125H29.375V35.625H34.375V19.375H31.875V20C31.875 20.345 31.5956 20.625 31.25 20.625H25C24.6544 20.625 24.375 20.345 24.375 20V15C24.375 14.655 24.6544 14.375 25 14.375H31.25C31.5956 14.375 31.875 14.655 31.875 15V15.625H34.375V11.875H5.625V15.625H8.125V15C8.125 14.655 8.40438 14.375 8.75 14.375H15C15.3456 14.375 15.625 14.655 15.625 15V20C15.625 20.345 15.3456 20.625 15 20.625H8.75C8.40438 20.625 8.125 20.345 8.125 20V19.375H5.625V35.625Z" fill="#87AE1B"/>
<path d="M1.875 36.875H38.125V38.125H1.875V36.875Z" fill="#87AE1B"/>
<path d="M3.125 11.875H4.375V35.625H3.125V11.875Z" fill="#87AE1B"/>
<path d="M5.625 16.875H8.125V18.125H5.625V16.875Z" fill="#87AE1B"/>
<path d="M30.625 19.375V15.625H25.625V19.375H30.625ZM26.875 16.875H29.375V18.125H26.875V16.875Z" fill="#87AE1B"/>
<path d="M25.625 33.125H23.75H21.875V35.625H25.625V33.125Z" fill="#87AE1B"/>
<path d="M27.5 25.625C26.4662 25.625 25.625 26.4662 25.625 27.5V29.375H29.375V27.5C29.375 26.4662 28.5338 25.625 27.5 25.625Z" fill="#87AE1B"/>
<path d="M20 25.625C18.9662 25.625 18.125 26.4662 18.125 27.5V29.375H21.875V27.5C21.875 26.4662 21.0338 25.625 20 25.625Z" fill="#87AE1B"/>
<path d="M1.875 6.875H38.125V10.625H1.875V6.875Z" fill="#87AE1B"/>
<path d="M35.625 11.875H36.875V35.625H35.625V11.875Z" fill="#87AE1B"/>
<path d="M19.375 33.125H20.625V35.625H19.375V33.125Z" fill="#87AE1B"/>
<path d="M9.375 30.625H15.625V31.875H9.375V30.625Z" fill="#87AE1B"/>
<path d="M12.5 25.625C11.4662 25.625 10.625 26.4662 10.625 27.5V29.375H14.375V27.5C14.375 26.4662 13.5338 25.625 12.5 25.625Z" fill="#87AE1B"/>
<path d="M11.875 33.125H13.125V35.625H11.875V33.125Z" fill="#87AE1B"/>
<path d="M18.125 33.125H16.25H14.375V35.625H18.125V33.125Z" fill="#87AE1B"/>
</svg>
