<svg width="40" height="40" viewBox="0 0 40 40" fill="none" xmlns="http://www.w3.org/2000/svg">
<path d="M20.0001 0C13.5501 0 8.30238 5.24749 8.30238 11.6977V18.3786C8.30238 18.4545 8.20869 18.5825 8.13509 18.6069C7.50252 18.8179 6.98878 19.0007 6.5185 19.182C5.95767 19.3982 5.53468 20.0197 5.53468 20.6277V35.9785C5.53468 36.5824 5.95494 37.2044 6.51221 37.4253C10.8239 39.1339 15.3619 40 20 40C24.6382 40 29.1762 39.1336 33.4881 37.4251C34.0452 37.2043 34.4652 36.5824 34.4652 35.9785V20.6277C34.4652 20.0197 34.0423 19.3982 33.4812 19.1818C33.0107 19.0005 32.497 18.8177 31.8649 18.6067C31.7915 18.5823 31.6979 18.4543 31.6979 18.3783V11.6975C31.6975 5.24749 26.4502 0 20.0001 0ZM16.8139 25.303C16.8139 23.5421 18.2404 22.1171 19.9999 22.1171C21.7593 22.1171 23.1857 23.542 23.1857 25.303C23.1857 26.4699 22.5277 27.4468 21.5928 28.0006V33.2679C21.5928 34.1484 20.8803 34.8608 19.9998 34.8608C19.1193 34.8608 18.4069 34.1484 18.4069 33.2679V28.0006C17.472 27.4468 16.8139 26.4699 16.8139 25.303ZM27.6755 11.6975V17.4619C25.1585 16.9203 22.5762 16.646 20.0011 16.6458C17.4272 16.6458 14.8455 16.9202 12.3246 17.4613V11.6975C12.3246 7.46523 15.7677 4.02218 19.9999 4.02218C24.2321 4.02211 27.6755 7.46523 27.6755 11.6975Z" fill="#87AE1B"/>
</svg>
