<svg width="40" height="40" viewBox="0 0 40 40" fill="none" xmlns="http://www.w3.org/2000/svg">
<path d="M16.5625 28.2812V14.0625H0.582886L2.34375 17.6041L0 22.3178L2.34375 27.0312L0 31.7447L2.34375 36.4581L0.582886 40H24.086C19.6503 37.9602 16.5625 33.4747 16.5625 28.2812Z" fill="#87AE1B"/>
<path d="M29.4531 0C23.6377 0 18.9062 4.73145 18.9062 10.5469V20.8783C21.2411 17.562 25.098 15.3906 29.4531 15.3906C33.8083 15.3906 37.6651 17.562 40 20.8783V10.5469C40 4.73145 35.2686 0 29.4531 0Z" fill="#87AE1B"/>
<path d="M29.4531 17.7344C23.6377 17.7344 18.9062 22.4658 18.9062 28.2812C18.9062 34.0967 23.6377 38.8281 29.4531 38.8281C35.2686 38.8281 40 34.0967 40 28.2812C40 22.4658 35.2686 17.7344 29.4531 17.7344ZM29.4531 36.4844C24.9298 36.4844 21.25 32.8046 21.25 28.2812C21.25 23.7579 24.9298 20.0781 29.4531 20.0781C33.9764 20.0781 37.6562 23.7579 37.6562 28.2812C37.6562 32.8046 33.9764 36.4844 29.4531 36.4844Z" fill="#87AE1B"/>
<path d="M29.4531 22.4219C26.2222 22.4219 23.5938 25.0504 23.5938 28.2812C23.5938 31.5121 26.2222 34.1406 29.4531 34.1406C32.684 34.1406 35.3125 31.5121 35.3125 28.2812C35.3125 25.0504 32.684 22.4219 29.4531 22.4219ZM29.4531 31.7969C27.5146 31.7969 25.9375 30.2197 25.9375 28.2812C25.9375 26.3428 27.5146 24.7656 29.4531 24.7656C31.3916 24.7656 32.9688 26.3428 32.9688 28.2812C32.9688 30.2197 31.3916 31.7969 29.4531 31.7969Z" fill="#87AE1B"/>
<path d="M29.4531 27.1094C28.8071 27.1094 28.2812 27.6352 28.2812 28.2812C28.2812 28.9273 28.8071 29.4531 29.4531 29.4531C30.0992 29.4531 30.625 28.9273 30.625 28.2812C30.625 27.6352 30.0992 27.1094 29.4531 27.1094Z" fill="#87AE1B"/>
</svg>
