<svg width="40" height="40" viewBox="0 0 40 40" fill="none" xmlns="http://www.w3.org/2000/svg">
<path d="M37.9675 7.88599H30.6603C29.5376 7.88599 28.6278 8.79516 28.6278 9.91822V15.1937H23.3524C22.2293 15.1937 21.3195 16.1025 21.3195 17.2257V22.5015H16.044C14.9209 22.5015 14.0114 23.4117 14.0114 24.5336V30.0635H8.48273C7.94326 30.0635 7.4263 30.2774 7.0453 30.658C6.66396 31.039 6.45009 31.5582 6.45009 32.0956L6.45075 36.3474C6.45075 37.4716 7.36091 38.3806 8.48331 38.3806H37.9675C39.0905 38.3806 39.9999 37.4716 39.9999 36.3474V9.91813C40.0001 8.79516 39.0905 7.88599 37.9675 7.88599Z" fill="#87AE1B"/>
<path d="M27.2709 2.02877C26.7478 1.49252 25.891 1.48221 25.355 2.00396C16.6629 10.4713 8.39375 18.7414 0.39708 26.7373C0.142639 26.9918 0 27.3374 0 27.6961V36.9693C0 37.7166 0.60642 38.3246 1.35498 38.3246C2.10281 38.3246 2.7103 37.7169 2.7103 36.9693V28.2569C10.5772 20.3897 18.7105 12.2606 27.2456 3.94475C27.7813 3.42309 27.7923 2.5647 27.2709 2.02877Z" fill="#87AE1B"/>
</svg>
