<svg width="40" height="40" viewBox="0 0 40 40" fill="none" xmlns="http://www.w3.org/2000/svg">
<path d="M31.255 23.2903C31.0819 23.2903 30.9037 23.3152 30.7253 23.3644L30.0545 23.5493L29.0661 21.1417C28.512 19.7921 26.8742 18.6941 25.4151 18.6941H14.5674C13.1084 18.6941 11.4704 19.7923 10.9165 21.1419L9.9299 23.545L9.27507 23.3646C9.09672 23.3154 8.91853 23.2905 8.74542 23.2905C7.87511 23.2905 7.24329 23.9148 7.24329 24.775C7.24329 25.6242 7.86305 26.3392 8.70306 26.5539C8.24244 27.8259 7.88448 29.7327 7.88448 30.9854V36.1084C7.88448 37.2021 8.77414 38.0918 9.86786 38.0918H10.5951C11.6888 38.0918 12.5784 37.2021 12.5784 36.1084V35.15H27.4039V36.1084C27.4039 37.2021 28.2935 38.0918 29.3872 38.0918H30.1148C31.2085 38.0918 32.0981 37.2021 32.0981 36.1084V30.9854C32.0981 29.7339 31.7408 27.8297 31.281 26.5577C32.1292 26.3482 32.7571 25.6294 32.7571 24.775C32.7569 23.9147 32.1253 23.2903 31.255 23.2903ZM11.1629 25.2894L12.7752 21.3617C13.1067 20.5543 14.0918 19.8938 14.9645 19.8938H25.0184C25.8911 19.8938 26.8763 20.5543 27.2077 21.3617L28.82 25.2894C29.1515 26.0967 28.7086 26.7573 27.8359 26.7573H12.147C11.2743 26.7573 10.8315 26.0967 11.1629 25.2894ZM15.4375 31.6761C15.4375 32.1124 15.0805 32.4694 14.6442 32.4694H11.3537C10.9173 32.4694 10.5603 32.1124 10.5603 31.6761V30.3637C10.5603 29.9274 10.9173 29.5703 11.3537 29.5703H14.6442C15.0805 29.5703 15.4375 29.9274 15.4375 30.3637V31.6761ZM29.3865 31.6761C29.3865 32.1124 29.0294 32.4694 28.5931 32.4694H25.3029C24.8666 32.4694 24.5095 32.1124 24.5095 31.6761V30.3637C24.5095 29.9274 24.8666 29.5703 25.3029 29.5703H28.5931C29.0294 29.5703 29.3865 29.9274 29.3865 30.3637V31.6761Z" fill="#87AE1B"/>
<path d="M39.1195 11.3511L20.8851 0.662545C20.6431 0.520693 20.3288 0.442627 20 0.442627C19.6712 0.442627 19.3569 0.520693 19.1149 0.662545L0.880465 11.3511C0.378589 11.6453 0 12.306 0 12.8878V38.3675C0 39.0236 0.533769 39.5576 1.19003 39.5576H3.23879C3.89506 39.5576 4.42882 39.0236 4.42882 38.3675V16.806C4.42882 16.5874 4.60669 16.4094 4.8255 16.4094H35.1742C35.393 16.4094 35.5709 16.5874 35.5709 16.806V38.3675C35.5709 39.0236 36.1046 39.5576 36.7609 39.5576H38.8098C39.4661 39.5576 39.9998 39.0236 39.9998 38.3675V12.8878C40 12.306 39.6214 11.6453 39.1195 11.3511Z" fill="#87AE1B"/>
</svg>
