<svg width="40" height="40" viewBox="0 0 40 40" fill="none" xmlns="http://www.w3.org/2000/svg">
<path d="M6.875 23.75C6.70924 23.75 6.55027 23.8158 6.43306 23.9331C6.31585 24.0503 6.25 24.2092 6.25 24.375V33.125C6.25 33.2908 6.31585 33.4497 6.43306 33.5669C6.55027 33.6842 6.70924 33.75 6.875 33.75C7.04076 33.75 7.19973 33.6842 7.31694 33.5669C7.43415 33.4497 7.5 33.2908 7.5 33.125V24.375C7.5 24.2092 7.43415 24.0503 7.31694 23.9331C7.19973 23.8158 7.04076 23.75 6.875 23.75Z" fill="#87AE1B"/>
<path d="M2.5 35.3662L5 32.8662V25H2.5V35.3662Z" fill="#87AE1B"/>
<path d="M14.0444 21.3231L18.5944 23.75H33.3056C34.7288 23.1381 35.4188 22.8475 35.7594 22.7087L37.1138 20H2.88626L4.76126 23.75H5.11501C5.23483 23.4059 5.45299 23.1045 5.74246 22.8831C6.03193 22.6618 6.37998 22.5303 6.74348 22.5049C7.10698 22.4795 7.46995 22.5613 7.7874 22.7401C8.10486 22.919 8.36284 23.1871 8.52939 23.5113L13.4963 21.3037C13.5831 21.2651 13.6776 21.2467 13.7726 21.2501C13.8675 21.2535 13.9605 21.2784 14.0444 21.3231Z" fill="#87AE1B"/>
<path d="M18.125 2.5H9.375V18.75H18.125V2.5ZM11.875 17.5H10.625V16.25H11.875V17.5ZM11.875 15H10.625V13.75H11.875V15ZM11.875 12.5H10.625V11.25H11.875V12.5ZM11.875 10H10.625V8.75H11.875V10ZM11.875 7.5H10.625V6.25H11.875V7.5ZM11.875 5H10.625V3.75H11.875V5ZM14.375 17.5H13.125V16.25H14.375V17.5ZM14.375 15H13.125V13.75H14.375V15ZM14.375 12.5H13.125V11.25H14.375V12.5ZM14.375 10H13.125V8.75H14.375V10ZM14.375 7.5H13.125V6.25H14.375V7.5ZM14.375 5H13.125V3.75H14.375V5ZM16.875 17.5H15.625V16.25H16.875V17.5ZM16.875 15H15.625V13.75H16.875V15ZM16.875 12.5H15.625V11.25H16.875V12.5ZM16.875 10H15.625V8.75H16.875V10ZM16.875 7.5H15.625V6.25H16.875V7.5ZM16.875 5H15.625V3.75H16.875V5Z" fill="#87AE1B"/>
<path d="M30.625 7.5H19.375V18.75H30.625V7.5ZM21.875 17.5H20.625V16.25H21.875V17.5ZM21.875 15H20.625V13.75H21.875V15ZM21.875 12.5H20.625V11.25H21.875V12.5ZM21.875 10H20.625V8.75H21.875V10ZM24.375 17.5H23.125V16.25H24.375V17.5ZM24.375 15H23.125V13.75H24.375V15ZM24.375 12.5H23.125V11.25H24.375V12.5ZM24.375 10H23.125V8.75H24.375V10ZM26.875 17.5H25.625V16.25H26.875V17.5ZM26.875 15H25.625V13.75H26.875V15ZM26.875 12.5H25.625V11.25H26.875V12.5ZM26.875 10H25.625V8.75H26.875V10ZM29.375 17.5H28.125V16.25H29.375V17.5ZM29.375 15H28.125V13.75H29.375V15ZM29.375 12.5H28.125V11.25H29.375V12.5ZM29.375 10H28.125V8.75H29.375V10Z" fill="#87AE1B"/>
<path d="M37.1488 24.0212C37.046 23.9339 36.9264 23.8685 36.7974 23.829C36.6685 23.7896 36.5328 23.7769 36.3988 23.7918C35.8987 23.9793 28.2075 27.3162 23.0737 29.5531C22.7397 29.8394 22.3149 29.9977 21.875 29.9999H13.75V28.7499H21.875C22.0408 28.7499 22.1997 28.6841 22.3169 28.5669C22.4342 28.4497 22.5 28.2907 22.5 28.1249V27.2499L13.725 22.5699L8.75 24.7812V32.7099L19.9269 37.4162L37.07 25.5912C37.2014 25.5006 37.309 25.3797 37.3839 25.2387C37.4587 25.0977 37.4985 24.9408 37.5 24.7812C37.5023 24.6363 37.4719 24.4927 37.4111 24.3611C37.3503 24.2295 37.2606 24.1134 37.1488 24.0212Z" fill="#87AE1B"/>
<path d="M30.4119 25H20.9375L23.4188 26.3231C23.5188 26.3764 23.6025 26.4559 23.6609 26.5531C23.7192 26.6504 23.75 26.7616 23.75 26.875V27.8956C26.5675 26.6681 28.7387 25.725 30.4119 25Z" fill="#87AE1B"/>
</svg>
