<svg width="40" height="40" viewBox="0 0 40 40" fill="none" xmlns="http://www.w3.org/2000/svg">
<path d="M12.8571 39.2858H24.2857V30.7144H12.8571V39.2858ZM14.2857 31.4286H22.8571C23.2516 31.4286 23.5714 31.7485 23.5714 32.1429V37.8572C23.5714 38.2517 23.2516 38.5715 22.8571 38.5715C22.4627 38.5715 22.1429 38.2517 22.1429 37.8572V32.8572H14.2857C13.8913 32.8572 13.5714 32.5374 13.5714 32.1429C13.5714 31.7485 13.8913 31.4286 14.2857 31.4286Z" fill="#87AE1B"/>
<path d="M6.42857 29.2858H17.8571V20.7144H6.42857V29.2858ZM7.85715 21.4286H16.4286C16.823 21.4286 17.1429 21.7485 17.1429 22.1429V27.8572C17.1429 28.2517 16.823 28.5715 16.4286 28.5715C16.0341 28.5715 15.7143 28.2517 15.7143 27.8572V22.8572H7.85715C7.46268 22.8572 7.14286 22.5374 7.14286 22.1429C7.14286 21.7485 7.46268 21.4286 7.85715 21.4286Z" fill="#87AE1B"/>
<path d="M0 39.2858H11.4286V30.7144H0V39.2858ZM1.42857 31.4286H10C10.3945 31.4286 10.7143 31.7485 10.7143 32.1429V37.8572C10.7143 38.2517 10.3945 38.5715 10 38.5715C9.60554 38.5715 9.28571 38.2517 9.28571 37.8572V32.8572H1.42857C1.03411 32.8572 0.714286 32.5374 0.714286 32.1429C0.714286 31.7485 1.03411 31.4286 1.42857 31.4286Z" fill="#87AE1B"/>
<path d="M9.28572 9.28566H20.7143V0.714233H9.28572V9.28566ZM10.7143 1.42852H19.2857C19.6802 1.42852 20 1.74834 20 2.1428V7.85709C20 8.25155 19.6802 8.57138 19.2857 8.57138C18.8913 8.57138 18.5714 8.25155 18.5714 7.85709V2.85709H10.7143C10.3198 2.85709 10 2.53727 10 2.1428C10 1.74834 10.3198 1.42852 10.7143 1.42852Z" fill="#87AE1B"/>
<path d="M33.5714 0.714233H22.1429V9.28566H33.5714V0.714233ZM32.8571 7.85709C32.8571 8.25155 32.5373 8.57138 32.1429 8.57138C31.7484 8.57138 31.4286 8.25155 31.4286 7.85709V2.85709H23.5714C23.177 2.85709 22.8572 2.53727 22.8572 2.1428C22.8572 1.74834 23.177 1.42852 23.5714 1.42852H32.1429C32.5373 1.42852 32.8571 1.74834 32.8571 2.1428V7.85709Z" fill="#87AE1B"/>
<path d="M2.85715 19.2858H14.2857V10.7144H2.85715V19.2858ZM4.28572 11.4286H12.8571C13.2516 11.4286 13.5714 11.7485 13.5714 12.1429V17.8572C13.5714 18.2517 13.2516 18.5715 12.8571 18.5715C12.4627 18.5715 12.1429 18.2517 12.1429 17.8572V12.8572H4.28572C3.89126 12.8572 3.57143 12.5374 3.57143 12.1429C3.57143 11.7485 3.89126 11.4286 4.28572 11.4286Z" fill="#87AE1B"/>
<path d="M40 10.7144H28.5714V19.2858H40V10.7144ZM39.2857 17.8572C39.2857 18.2517 38.9659 18.5715 38.5714 18.5715C38.177 18.5715 37.8571 18.2517 37.8571 17.8572V12.8572H30C29.6055 12.8572 29.2857 12.5374 29.2857 12.1429C29.2857 11.7485 29.6055 11.4286 30 11.4286H38.5714C38.9659 11.4286 39.2857 11.7485 39.2857 12.1429V17.8572Z" fill="#87AE1B"/>
<path d="M37.1429 30.7144H25.7143V39.2858H37.1429V30.7144ZM36.4286 37.8572C36.4286 38.2517 36.1087 38.5715 35.7143 38.5715C35.3198 38.5715 35 38.2517 35 37.8572V32.8572H27.1429C26.7484 32.8572 26.4286 32.5374 26.4286 32.1429C26.4286 31.7485 26.7484 31.4286 27.1429 31.4286H35.7143C36.1087 31.4286 36.4286 31.7485 36.4286 32.1429V37.8572Z" fill="#87AE1B"/>
<path d="M30.7143 20.7144H19.2857V29.2858H30.7143V20.7144ZM30 27.8572C30 28.2517 29.6802 28.5715 29.2857 28.5715C28.8913 28.5715 28.5714 28.2517 28.5714 27.8572V22.8572H20.7143C20.3198 22.8572 20 22.5374 20 22.1429C20 21.7485 20.3198 21.4286 20.7143 21.4286H29.2857C29.6802 21.4286 30 21.7485 30 22.1429V27.8572Z" fill="#87AE1B"/>
<path d="M15.7143 19.2858H27.1429V10.7144H15.7143V19.2858ZM17.1429 11.4286H25.7143C26.1087 11.4286 26.4286 11.7485 26.4286 12.1429V17.8572C26.4286 18.2517 26.1087 18.5715 25.7143 18.5715C25.3198 18.5715 25 18.2517 25 17.8572V12.8572H17.1429C16.7484 12.8572 16.4286 12.5374 16.4286 12.1429C16.4286 11.7485 16.7484 11.4286 17.1429 11.4286Z" fill="#87AE1B"/>
</svg>
