<svg width="40" height="40" viewBox="0 0 40 40" fill="none" xmlns="http://www.w3.org/2000/svg">
<path d="M39.0178 8.35938L14.0414 0.0597656L13.8615 0H10.1003L0.725313 8.35938H0V14.6094H5.46875V8.35938H4.24695L10.9375 2.39359V6.40625H7.03125V14.2188H17.1875V6.40625H13.2812V2.34375H13.4823L31.5853 8.35938H18.75V13.0469H40V8.35938H39.0178Z" fill="#87AE1B"/>
<path d="M40 30H20.625V34.6875H40V30Z" fill="#87AE1B"/>
<path d="M32.4167 25.0484C33.2042 24.4255 33.7109 23.4625 33.7109 22.3828H31.3672C31.3672 22.9644 30.8941 23.4375 30.3125 23.4375C29.7309 23.4375 29.2578 22.9644 29.2578 22.3828C29.2578 21.8012 29.7309 21.3281 30.3125 21.3281H31.4844V18.5156H31.5791L33.8281 16.2666V14.6094H26.7969V16.2666L29.0459 18.5156H29.1406V19.1927C27.8424 19.6711 26.9141 20.9205 26.9141 22.3828C26.9141 23.4625 27.4208 24.4255 28.2083 25.0484L23.7461 28.4375H27.6212L30.3125 26.3934L33.0038 28.4375H36.8789L32.4167 25.0484Z" fill="#87AE1B"/>
<path d="M13.1865 16.5625L9.375 20.374V16.5625H7.03125V40H17.1875V16.5625H13.1865ZM9.375 24.375H13.1865L9.375 28.1865V24.375ZM9.375 32.1875H13.1865L9.375 35.999V32.1875ZM14.8438 37.6562H11.0323L14.8438 33.8448V37.6562ZM14.8438 29.8438H11.0323L14.8438 26.0323V29.8438ZM14.8438 22.0312H11.0323L14.8438 18.2198V22.0312Z" fill="#87AE1B"/>
</svg>
